<?xml version="1.0" encoding="UTF-8" standalone="no"?>
<!-- Created with Inkscape (http://www.inkscape.org/) -->

<svg
   width="512"
   height="512"
   viewBox="0 0 135.46666 135.46667"
   version="1.1"
   id="svg1"
   xmlns="http://www.w3.org/2000/svg"
   xmlns:svg="http://www.w3.org/2000/svg"
   xmlns:rdf="http://www.w3.org/1999/02/22-rdf-syntax-ns#"
   xmlns:cc="http://creativecommons.org/ns#"
   xmlns:dc="http://purl.org/dc/elements/1.1/">
  <defs
     id="defs1" />
  <metadata
     id="metadata1">
    <rdf:RDF>
      <cc:Work
         rdf:about="">
        <dc:format>image/svg+xml</dc:format>
        <dc:type
           rdf:resource="http://purl.org/dc/dcmitype/StillImage" />
      </cc:Work>
    </rdf:RDF>
  </metadata>
  <path
     d="M 52.318254,53.478389 42.274422,53.44635 v 9.970451 l 10.043832,0.03204 z"
     style="fill:#000000;fill-opacity:1;stroke:#000000;stroke-width:0.194934"
     id="path152" />
  <path
     d="m 32.231108,63.384762 10.043314,0.03204 V 53.44635 l -10.043314,-0.03204 z"
     style="fill:#000000;fill-opacity:1;stroke:#000000;stroke-width:0.194934"
     id="path151" />
  <path
     d="m 32.231108,63.384762 v -9.970451 l -2.85564,-0.0093 a 41.145706,41.145706 0 0 0 -2.416907,9.962699 z"
     style="fill:#000000;fill-opacity:1;stroke:#000000;stroke-width:0.194934"
     id="path150" />
  <path
     d="m 92.492029,103.45828 v -2.53783 a 41.145706,41.145706 0 0 1 -3.608049,2.52647 z"
     style="fill:#000000;fill-opacity:1;stroke:#000000;stroke-width:0.264583"
     id="path149" />
  <path
     d="m 100.25693,113.45251 -7.764901,-0.0248 v 4.74803 a 55.846981,55.846981 0 0 0 7.764901,-4.72322 z"
     style="fill:#000000;fill-opacity:1;stroke:#000000;stroke-width:0.264583"
     id="path148" />
  <path
     d="m 110.86558,103.51668 -8.33024,-0.0264 v 8.25635 a 55.846981,55.846981 0 0 0 8.33024,-8.22999 z"
     style="fill:#000000;fill-opacity:1;stroke:#000000;stroke-width:0.264583"
     id="path147" />
  <path
     d="m 100.25693,113.45251 a 55.846981,55.846981 0 0 0 2.27841,-1.70584 v -8.25635 l -10.043311,-0.032 v 9.96942 z"
     style="fill:#000000;fill-opacity:1;stroke:#000000;stroke-width:0.264583"
     id="path146" />
  <path
     d="m 102.53534,103.49032 v -9.970447 l -2.50372,-0.0078 a 41.145706,41.145706 0 0 1 -7.539591,7.408328 v 2.53783 z"
     style="fill:#000000;fill-opacity:1;stroke:#000000;stroke-width:0.264583"
     id="path145" />
  <path
     d="m 102.53534,89.936629 a 41.145706,41.145706 0 0 1 -2.50372,3.575493 l 2.50372,0.0078 z"
     style="fill:#000000;fill-opacity:1;stroke:#000000;stroke-width:0.264583"
     id="path144" />
  <path
     d="m 112.57814,93.551912 v 7.677568 a 55.846981,55.846981 0 0 0 4.74648,-7.662065 z"
     style="fill:#000000;fill-opacity:1;stroke:#000000;stroke-width:0.264583"
     id="path143" />
  <path
     d="m 112.57814,93.551912 -10.0428,-0.03204 v 9.970447 l 8.33024,0.0264 a 55.846981,55.846981 0 0 0 1.71256,-2.2872 z"
     style="fill:#000000;fill-opacity:1;stroke:#000000;stroke-width:0.264583"
     id="path142" />
  <path
     d="m 112.57814,83.581462 v 9.97045 l 4.74648,0.0155 a 55.846981,55.846981 0 0 0 4.01939,-9.958048 z"
     style="fill:#000000;fill-opacity:1;stroke:#000000;stroke-width:0.264583"
     id="path141" />
  <path
     d="m 112.57814,83.581462 -6.81095,-0.0217 a 41.145706,41.145706 0 0 1 -3.23185,6.376872 v 3.583244 l 10.0428,0.03204 z"
     style="fill:#000000;fill-opacity:1;stroke:#000000;stroke-width:0.264583"
     id="path140" />
  <path
     d="m 112.57814,73.611011 -4.22351,-0.01344 a 41.145706,41.145706 0 0 1 -2.58744,9.962182 l 6.81095,0.0217 z"
     style="fill:#000000;fill-opacity:1;stroke:#000000;stroke-width:0.264583"
     id="path139" />
  <path
     d="m 112.57814,63.641077 -4.02146,-0.01292 a 41.145706,41.145706 0 0 1 0.2651,4.630208 41.145706,41.145706 0 0 1 -0.46715,5.339209 l 4.22351,0.01344 z"
     style="fill:#000000;fill-opacity:1;stroke:#000000;stroke-width:0.264583"
     id="path138" />
  <path
     d="m 112.57814,53.670626 -6.45077,-0.02015 a 41.145706,41.145706 0 0 1 2.42931,9.977686 l 4.02146,0.01292 z"
     style="fill:#000000;fill-opacity:1;stroke:#000000;stroke-width:0.264583"
     id="path137" />
  <path
     d="m 122.62197,58.354578 a 55.846981,55.846981 0 0 0 -1.04645,-4.655013 l -8.99738,-0.02894 v 9.970451 0 9.969934 0 9.970451 l 8.76587,0.02791 a 55.846981,55.846981 0 0 0 1.27796,-5.873543 z"
     style="fill:#000000;fill-opacity:1;stroke:#000000;stroke-width:0.264583"
     id="path136" />
  <path
     d="m 122.62249,77.73324 a 55.846981,55.846981 0 0 0 0.90072,-9.474874 55.846981,55.846981 0 0 0 -0.90072,-9.900688 z"
     style="fill:#000000;fill-opacity:1;stroke:#000000;stroke-width:0.264583"
     id="path135" />
  <path
     d="m 112.57814,43.700692 v 9.969934 l 8.99738,0.02894 a 55.846981,55.846981 0 0 0 -3.74809,-9.982337 z"
     style="fill:#000000;fill-opacity:1;stroke:#000000;stroke-width:0.264583"
     id="path134" />
  <path
     d="m 112.57814,35.054708 v 8.645984 l 5.24929,0.01654 a 55.846981,55.846981 0 0 0 -5.24929,-8.66252 z"
     style="fill:#000000;fill-opacity:1;stroke:#000000;stroke-width:0.264583"
     id="path133" />
  <path
     d="m 100.66001,43.662451 c 0.66236,0.896976 1.28799,1.82051 1.87533,2.768307 1.43085,2.283148 2.63397,4.701339 3.59203,7.219714 l 6.45077,0.02015 v -9.969934 l -10.0428,-0.03204 z"
     style="fill:#000000;fill-opacity:1;stroke:#000000;stroke-width:0.264583"
     id="path132" />
  <path
     d="m 102.53534,24.64294 v 9.054745 l 9.01134,0.02894 a 55.846981,55.846981 0 0 0 -9.01134,-9.083684 z"
     style="fill:#000000;fill-opacity:1;stroke:#000000;stroke-width:0.264583"
     id="path131" />
  <path
     d="m 112.57814,35.054708 a 55.846981,55.846981 0 0 0 -1.03146,-1.328084 l -9.01134,-0.02894 v 9.970967 l 10.0428,0.03204 z"
     style="fill:#000000;fill-opacity:1;stroke:#000000;stroke-width:0.264583"
     id="path130" />
  <path
     d="m 101.35712,23.724133 -8.865091,-0.02842 v 9.969934 l 10.043311,0.03204 V 24.64294 a 55.846981,55.846981 0 0 0 -1.17822,-0.918807 z"
     style="fill:#000000;fill-opacity:1;stroke:#000000;stroke-width:0.264583"
     id="path129" />
  <path
     d="m 92.492029,35.448482 v -1.782837 l -2.569352,-0.0078 a 41.145706,41.145706 0 0 1 2.569352,1.790588 z"
     style="fill:#000000;fill-opacity:1;stroke:#000000;stroke-width:0.264583"
     id="path128" />
  <path
     d="m 100.66001,43.662451 1.87533,0.0062 v -9.970967 l -10.043311,-0.03204 v 1.782837 a 41.145706,41.145706 0 0 1 8.167981,8.213969 z"
     style="fill:#000000;fill-opacity:1;stroke:#000000;stroke-width:0.264583"
     id="path127" />
  <path
     d="m 92.492029,18.245398 v 5.450313 l 8.865091,0.02842 a 55.846981,55.846981 0 0 0 -8.865091,-5.478735 z"
     style="fill:#000000;fill-opacity:1;stroke:#000000;stroke-width:0.264583"
     id="path126" />
  <path
     d="m 82.448197,23.663672 10.043832,0.03204 V 18.245398 A 55.846981,55.846981 0 0 0 82.448197,14.417725 Z"
     style="fill:#000000;fill-opacity:1;stroke:#000000;stroke-width:0.264583"
     id="path125" />
  <path
     d="m 89.922677,33.657894 2.569352,0.0078 v -9.969934 l -10.043832,-0.03204 v 6.208406 a 41.145706,41.145706 0 0 1 7.47448,3.785816 z"
     style="fill:#000000;fill-opacity:1;stroke:#000000;stroke-width:0.264583"
     id="path124" />
  <path
     d="m 89.922677,33.657894 a 41.145706,41.145706 0 0 0 -7.47448,-3.785816 v 3.761528 z"
     style="fill:#000000;fill-opacity:1;stroke:#000000;stroke-width:0.194934"
     id="path123" />
  <path
     d="m 92.492029,35.448482 a 41.145706,41.145706 0 0 0 -2.569352,-1.790588 l -7.47448,-0.02429 v 9.970451 l 10.043832,0.03256 z"
     style="fill:#000000;fill-opacity:1;stroke:#000000;stroke-width:0.194934"
     id="path122" />
  <path
     d="m 82.448197,53.574508 10.043832,0.03204 v -9.969934 l -10.043832,-0.03256 z"
     style="fill:#000000;fill-opacity:1;stroke:#000000;stroke-width:0.194934"
     id="path121" />
  <path
     d="m 82.448197,63.544958 10.043832,0.03204 v -9.970451 l -10.043832,-0.03204 z"
     style="fill:#000000;fill-opacity:1;stroke:#000000;stroke-width:0.194934"
     id="path120" />
  <path
     d="m 82.448197,63.544958 v 9.969935 l 10.043832,0.03204 v -9.969934 z"
     style="fill:#000000;fill-opacity:1;stroke:#000000;stroke-width:0.194934"
     id="path119" />
  <path
     d="m 82.448197,83.485343 10.043832,0.03204 v -9.970451 l -10.043832,-0.03204 z"
     style="fill:#000000;fill-opacity:1;stroke:#000000;stroke-width:0.194934"
     id="path118" />
  <path
     d="m 82.448197,83.485343 v 9.970451 l 10.043832,0.03204 v -9.970451 z"
     style="fill:#000000;fill-opacity:1;stroke:#000000;stroke-width:0.194934"
     id="path117" />
  <path
     d="m 88.88398,103.44692 a 41.145706,41.145706 0 0 0 3.608049,-2.52647 v -7.432616 l -10.043832,-0.03204 v 9.970456 z"
     style="fill:#000000;fill-opacity:1;stroke:#000000;stroke-width:0.194934"
     id="path116" />
  <path
     d="m 92.492029,113.4277 v -9.96942 l -3.608049,-0.0114 a 41.145706,41.145706 0 0 1 -6.435783,3.14967 v 6.79907 z"
     style="fill:#000000;fill-opacity:1;stroke:#000000;stroke-width:0.264583"
     id="path115" />
  <path
     d="m 88.88398,103.44692 -6.435783,-0.0207 v 3.17034 a 41.145706,41.145706 0 0 0 6.435783,-3.14967 z"
     style="fill:#000000;fill-opacity:1;stroke:#000000;stroke-width:0.194934"
     id="path114" />
  <path
     d="m 92.492029,113.4277 -10.043832,-0.032 v 8.65684 a 55.846981,55.846981 0 0 0 10.043832,-3.87677 z"
     style="fill:#000000;fill-opacity:1;stroke:#000000;stroke-width:0.264583"
     id="path113" />
  <path
     d="m 82.448197,103.42625 -10.043314,-0.032 v 5.59604 a 41.145706,41.145706 0 0 0 10.043314,-2.39366 z"
     style="fill:#000000;fill-opacity:1;stroke:#000000;stroke-width:0.194934"
     id="path112" />
  <path
     d="m 82.448197,103.42625 v -9.970456 l -10.043314,-0.03204 v 9.970455 z"
     style="fill:#000000;fill-opacity:1;stroke:#000000;stroke-width:0.194934"
     id="path111" />
  <path
     d="m 72.404883,83.453304 v 9.970451 l 10.043314,0.03204 v -9.970451 z"
     style="fill:#000000;fill-opacity:1;stroke:#000000;stroke-width:0.194934"
     id="path110" />
  <path
     d="m 72.404883,83.453304 10.043314,0.03204 v -9.97045 l -10.043314,-0.03204 z"
     style="fill:#000000;fill-opacity:1;stroke:#000000;stroke-width:0.194934"
     id="path109" />
  <path
     d="m 72.404883,63.512919 v 9.969934 l 10.043314,0.03204 v -9.969935 z"
     style="fill:#000000;fill-opacity:1;stroke:#000000;stroke-width:0.194934"
     id="path108" />
  <path
     d="m 72.404883,53.542468 v 9.970451 l 10.043314,0.03204 v -9.97045 z"
     style="fill:#000000;fill-opacity:1;stroke:#000000;stroke-width:0.194934"
     id="path107" />
  <path
     d="m 72.404883,43.572017 v 9.970451 l 10.043314,0.03204 v -9.970451 z"
     style="fill:#000000;fill-opacity:1;stroke:#000000;stroke-width:0.194934"
     id="path106" />
  <path
     d="m 72.404883,33.601567 v 9.97045 l 10.043314,0.03204 v -9.970451 z"
     style="fill:#000000;fill-opacity:1;stroke:#000000;stroke-width:0.194934"
     id="path105" />
  <path
     d="m 82.448197,29.872078 v -6.208406 l -10.043314,-0.03204 v 3.75481 a 41.145706,41.145706 0 0 1 10.043314,2.485636 z"
     style="fill:#000000;fill-opacity:1;stroke:#000000;stroke-width:0.264583"
     id="path104" />
  <path
     d="M 82.448197,29.872078 A 41.145706,41.145706 0 0 0 72.404883,27.386442 v 6.215125 l 10.043314,0.03204 z"
     style="fill:#000000;fill-opacity:1;stroke:#000000;stroke-width:0.194934"
     id="path103" />
  <path
     d="m 72.404883,13.661182 v 9.97045 l 10.043314,0.03204 v -9.245947 a 55.846981,55.846981 0 0 0 -2.988964,-0.733806 z"
     style="fill:#000000;fill-opacity:1;stroke:#000000;stroke-width:0.264583"
     id="path102" />
  <path
     d="m 56.823405,13.611572 5.538163,0.01757 v 0 l 10.043315,0.03204 v 0 l 7.05435,0.02274 a 55.846981,55.846981 0 0 0 -11.783261,-1.27279 55.846981,55.846981 0 0 0 -10.852567,1.200443 z"
     style="fill:#000000;fill-opacity:1;stroke:#000000;stroke-width:0.264583"
     id="path101" />
  <path
     d="m 62.361568,13.629142 v 9.970451 l 10.043315,0.03204 v -9.97045 z"
     style="fill:#000000;fill-opacity:1;stroke:#000000;stroke-width:0.264583"
     id="path100" />
  <path
     d="m 72.404883,27.386442 v -3.75481 l -10.043315,-0.03204 v 3.978052 a 41.145706,41.145706 0 0 1 5.314404,-0.465088 41.145706,41.145706 0 0 1 4.728911,0.273885 z"
     style="fill:#000000;fill-opacity:1;stroke:#000000;stroke-width:0.264583"
     id="path99" />
  <path
     d="m 52.318254,63.44884 -10.043832,-0.03204 v 9.969934 l 10.043832,0.03204 z"
     style="fill:#000000;fill-opacity:1;stroke:#000000;stroke-width:0.194934"
     id="path98" />
  <path
     d="m 52.318254,73.418774 -10.043832,-0.03204 v 9.970451 l 10.043832,0.03204 z"
     style="fill:#000000;fill-opacity:1;stroke:#000000;stroke-width:0.194934"
     id="path97" />
  <path
     d="m 32.231108,83.325146 10.043314,0.03204 v -9.970451 l -10.043314,-0.03204 z"
     style="fill:#000000;fill-opacity:1;stroke:#000000;stroke-width:0.194934"
     id="path96" />
  <path
     d="m 32.231108,73.354696 10.043314,0.03204 v -9.969934 l -10.043314,-0.03204 z"
     style="fill:#000000;fill-opacity:1;stroke:#000000;stroke-width:0.194934"
     id="path95" />
  <path
     d="m 32.231108,73.354696 v -9.969934 l -5.272547,-0.01705 a 41.145706,41.145706 0 0 0 -0.427881,4.890658 41.145706,41.145706 0 0 0 0.444418,5.079793 z"
     style="fill:#000000;fill-opacity:1;stroke:#000000;stroke-width:0.194934"
     id="path94" />
  <path
     d="m 32.231108,83.325146 v -9.97045 l -5.25601,-0.01654 a 41.145706,41.145706 0 0 0 2.495971,9.978202 z"
     style="fill:#000000;fill-opacity:1;stroke:#000000;stroke-width:0.194934"
     id="path93" />
  <path
     d="m 82.448197,113.39566 v -6.79907 a 41.145706,41.145706 0 0 1 -10.043314,2.39366 v 4.37337 z"
     style="fill:#000000;fill-opacity:1;stroke:#000000;stroke-width:0.264583"
     id="path92" />
  <path
     d="m 72.404883,113.36362 v -4.37337 a 41.145706,41.145706 0 0 1 -4.728911,0.41392 41.145706,41.145706 0 0 1 -5.314404,-0.46508 v 4.39249 z"
     style="fill:#000000;fill-opacity:1;stroke:#000000;stroke-width:0.264583"
     id="path91" />
  <path
     d="m 62.361568,113.33158 v -4.39249 a 41.145706,41.145706 0 0 1 -10.043314,-2.61586 v 6.97631 z"
     style="fill:#000000;fill-opacity:1;stroke:#000000;stroke-width:0.264583"
     id="path90" />
  <path
     d="m 58.59694,123.29067 a 55.846981,55.846981 0 0 0 9.079032,0.81442 55.846981,55.846981 0 0 0 8.816,-0.75706 z"
     style="fill:#000000;fill-opacity:1;stroke:#000000;stroke-width:0.264583"
     id="path89" />
  <path
     d="m 82.448197,113.39566 -10.043314,-0.032 v 0 l -10.043315,-0.032 v 0 l -10.043314,-0.032 v 8.62532 a 55.846981,55.846981 0 0 0 6.278686,1.36581 l 17.895032,0.0574 a 55.846981,55.846981 0 0 0 5.956225,-1.29553 z"
     style="fill:#000000;fill-opacity:1;stroke:#000000;stroke-width:0.264583"
     id="path88" />
  <path
     d="m 32.231108,93.295081 2.944006,0.0093 a 41.145706,41.145706 0 0 1 -2.944006,-4.204394 z"
     style="fill:#000000;fill-opacity:1;stroke:#000000;stroke-width:0.264583"
     id="path87" />
  <path
     d="m 46.273661,103.31049 a 41.145706,41.145706 0 0 1 -3.999239,-2.79983 v 2.78743 z"
     style="fill:#000000;fill-opacity:1;stroke:#000000;stroke-width:0.264583"
     id="path86" />
  <path
     d="m 52.318254,113.29954 v -6.97631 a 41.145706,41.145706 0 0 1 -6.044593,-3.01274 l -3.999239,-0.0124 v 9.96941 z"
     style="fill:#000000;fill-opacity:1;stroke:#000000;stroke-width:0.264583"
     id="path85" />
  <path
     d="m 42.274422,113.2675 -7.457943,-0.0238 a 55.846981,55.846981 0 0 0 7.457943,4.61213 z"
     style="fill:#000000;fill-opacity:1;stroke:#000000;stroke-width:0.264583"
     id="path84" />
  <path
     d="m 52.318254,113.29954 -10.043832,-0.032 v 4.58836 a 55.846981,55.846981 0 0 0 10.043832,4.069 z"
     style="fill:#000000;fill-opacity:1;stroke:#000000;stroke-width:0.264583"
     id="path83" />
  <path
     d="m 42.274422,113.2675 v -9.96941 l -10.043314,-0.032 v 8.0424 a 55.846981,55.846981 0 0 0 2.585371,1.93528 z"
     style="fill:#000000;fill-opacity:1;stroke:#000000;stroke-width:0.264583"
     id="path82" />
  <path
     d="m 42.274422,103.29809 v -2.78743 a 41.145706,41.145706 0 0 1 -7.099308,-7.206278 l -2.944006,-0.0093 v 9.970969 z"
     style="fill:#000000;fill-opacity:1;stroke:#000000;stroke-width:0.264583"
     id="path81" />
  <path
     d="m 32.231108,103.26605 -7.951453,-0.0258 a 55.846981,55.846981 0 0 0 7.951453,8.06824 z"
     style="fill:#000000;fill-opacity:1;stroke:#000000;stroke-width:0.264583"
     id="path80" />
  <path
     d="m 22.187793,100.44607 a 55.846981,55.846981 0 0 0 2.091862,2.79414 l 7.951453,0.0258 v -9.970969 l -10.043315,-0.03204 z"
     style="fill:#000000;fill-opacity:1;stroke:#000000;stroke-width:0.264583"
     id="path79" />
  <path
     d="m 22.187793,100.44607 v -7.183029 l -4.333586,-0.01395 a 55.846981,55.846981 0 0 0 4.333586,7.196981 z"
     style="fill:#000000;fill-opacity:1;stroke:#000000;stroke-width:0.264583"
     id="path78" />
  <path
     d="m 22.187793,93.263041 v -9.969934 l -8.254277,-0.02636 a 55.846981,55.846981 0 0 0 3.920691,9.982337 z"
     style="fill:#000000;fill-opacity:1;stroke:#000000;stroke-width:0.264583"
     id="path77" />
  <path
     d="m 22.187793,93.263041 10.043315,0.03204 v -4.195093 a 41.145706,41.145706 0 0 1 -2.760039,-5.783627 l -7.283276,-0.02325 z"
     style="fill:#000000;fill-opacity:1;stroke:#000000;stroke-width:0.264583"
     id="path76" />
  <path
     d="m 22.187793,83.293107 7.283276,0.02325 a 41.145706,41.145706 0 0 1 -2.495971,-9.978202 l -4.787305,-0.0155 z"
     style="fill:#000000;fill-opacity:1;stroke:#000000;stroke-width:0.264583"
     id="path75" />
  <path
     d="m 22.187793,73.322656 4.787305,0.0155 a 41.145706,41.145706 0 0 1 -0.444418,-5.079793 41.145706,41.145706 0 0 1 0.427881,-4.890658 l -4.770768,-0.01499 z"
     style="fill:#000000;fill-opacity:1;stroke:#000000;stroke-width:0.264583"
     id="path74" />
  <path
     d="m 22.187793,63.352722 4.770768,0.01499 a 41.145706,41.145706 0 0 1 2.416907,-9.962699 l -7.187675,-0.02274 z"
     style="fill:#000000;fill-opacity:1;stroke:#000000;stroke-width:0.264583"
     id="path73" />
  <path
     d="m 42.274422,36.006071 a 41.145706,41.145706 0 0 1 3.554822,-2.489254 l -3.554822,-0.01137 z"
     style="fill:#000000;fill-opacity:1;stroke:#000000;stroke-width:0.264583"
     id="path72" />
  <path
     d="m 32.231108,47.416744 a 41.145706,41.145706 0 0 1 2.775541,-3.964099 l -2.775541,-0.0088 z"
     style="fill:#000000;fill-opacity:1;stroke:#000000;stroke-width:0.264583"
     id="path71" />
  <path
     d="m 22.187793,53.382271 7.187675,0.02274 a 41.145706,41.145706 0 0 1 2.85564,-5.988265 V 43.44386 L 22.187793,43.41182 Z"
     style="fill:#000000;fill-opacity:1;stroke:#000000;stroke-width:0.264583"
     id="path70" />
  <path
     d="m 32.231108,43.44386 2.775541,0.0088 a 41.145706,41.145706 0 0 1 7.267773,-7.446574 v -2.500623 l -10.043314,-0.03204 z"
     style="fill:#000000;fill-opacity:1;stroke:#000000;stroke-width:0.264583"
     id="path69" />
  <path
     d="m 52.318254,23.567554 v 6.625952 a 41.145706,41.145706 0 0 1 10.043314,-2.615861 v -3.978052 z"
     style="fill:#000000;fill-opacity:1;stroke:#000000;stroke-width:0.264583"
     id="path68" />
  <path
     d="m 52.318254,23.567554 -10.043832,-0.03204 v 9.969934 l 3.554822,0.01137 a 41.145706,41.145706 0 0 1 6.48901,-3.323311 z"
     style="fill:#000000;fill-opacity:1;stroke:#000000;stroke-width:0.264583"
     id="path67" />
  <path
     d="m 56.823405,13.611572 a 55.846981,55.846981 0 0 0 -4.505151,0.980302 v 8.97568 l 10.043314,0.03204 v -9.970451 z"
     style="fill:#000000;fill-opacity:1;stroke:#000000;stroke-width:0.264583"
     id="path66" />
  <path
     d="m 42.274422,18.66036 v 4.875154 l 10.043832,0.03204 v -8.97568 A 55.846981,55.846981 0 0 0 42.274422,18.66036 Z"
     style="fill:#000000;fill-opacity:1;stroke:#000000;stroke-width:0.264583"
     id="path65" />
  <path
     d="m 34.499186,23.51071 7.775236,0.0248 V 18.66036 a 55.846981,55.846981 0 0 0 -7.775236,4.85035 z"
     style="fill:#000000;fill-opacity:1;stroke:#000000;stroke-width:0.264583"
     id="path64" />
  <path
     d="m 32.231108,33.473409 10.043314,0.03204 v -9.969934 l -7.775236,-0.0248 a 55.846981,55.846981 0 0 0 -2.268078,1.69757 z"
     style="fill:#000000;fill-opacity:1;stroke:#000000;stroke-width:0.264583"
     id="path63" />
  <path
     d="M 32.231108,33.473409 V 25.20828 a 55.846981,55.846981 0 0 0 -8.079611,8.239291 z"
     style="fill:#000000;fill-opacity:1;stroke:#000000;stroke-width:0.264583"
     id="path62" />
  <path
     d="m 22.187793,43.41182 10.043315,0.03204 v -9.970451 l -8.079611,-0.02584 a 55.846981,55.846981 0 0 0 -1.963704,2.623096 z"
     style="fill:#000000;fill-opacity:1;stroke:#000000;stroke-width:0.264583"
     id="path61" />
  <path
     d="m 22.187793,43.41182 v -7.341153 a 55.846981,55.846981 0 0 0 -4.404899,7.326684 z"
     style="fill:#000000;fill-opacity:1;stroke:#000000;stroke-width:0.264583"
     id="path60" />
  <path
     d="M 22.187793,53.382271 V 43.41182 l -4.404899,-0.01447 a 55.846981,55.846981 0 0 0 -3.872632,9.958565 z"
     style="fill:#000000;fill-opacity:1;stroke:#000000;stroke-width:0.264583"
     id="path59" />
  <path
     d="m 22.187793,83.293107 v -9.970451 0 -9.969934 0 -9.970451 l -8.277531,-0.02636 a 55.846981,55.846981 0 0 0 -1.7663,10.502202 v 8.800496 a 55.846981,55.846981 0 0 0 1.789554,10.608138 z"
     style="fill:#000000;fill-opacity:1;stroke:#000000;stroke-width:0.264583"
     id="path58" />
</svg>
